<svg width="409" height="91" viewBox="0 0 409 91" fill="none" xmlns="http://www.w3.org/2000/svg">
<path d="M53.375 42.6667V21.3334C53.3741 20.3981 53.1388 19.4796 52.6927 18.6698C52.2466 17.8601 51.6053 17.1877 50.8333 16.7201L33.0417 6.0534C32.2689 5.5853 31.3923 5.33887 30.5 5.33887C29.6077 5.33887 28.7311 5.5853 27.9583 6.0534L10.1667 16.7201C9.39467 17.1877 8.75345 17.8601 8.30734 18.6698C7.86123 19.4796 7.62591 20.3981 7.625 21.3334V42.6667C7.62591 43.602 7.86123 44.5206 8.30734 45.3303C8.75345 46.14 9.39467 46.8124 10.1667 47.2801L27.9583 57.9467C28.7311 58.4148 29.6077 58.6613 30.5 58.6613C31.3923 58.6613 32.2689 58.4148 33.0417 57.9467L50.8333 47.2801C51.6053 46.8124 52.2466 46.14 52.6927 45.3303C53.1388 44.5206 53.3741 43.602 53.375 42.6667Z" stroke="#CBCCC6" stroke-width="2" stroke-linecap="round" stroke-linejoin="round"/>
<path d="M8.31055 18.5599L30.4993 32.0266L52.688 18.5599" stroke="#CBCCC6" stroke-width="2" stroke-linecap="round" stroke-linejoin="round"/>
<path d="M30.5 58.88V32" stroke="#CBCCC6" stroke-width="2" stroke-linecap="round" stroke-linejoin="round"/>
<path d="M69.16 39.16C69.16 41.144 69.72 42.728 70.84 43.912C71.96 45.064 73.48 45.64 75.4 45.64C77.32 45.64 78.84 45.064 79.96 43.912C81.08 42.728 81.64 41.144 81.64 39.16V24.28C81.64 22.296 81.08 20.728 79.96 19.576C78.84 18.392 77.32 17.8 75.4 17.8C73.48 17.8 71.96 18.392 70.84 19.576C69.72 20.728 69.16 22.296 69.16 24.28V39.16ZM64.84 24.28C64.84 22.712 65.08 21.288 65.56 20.008C66.072 18.728 66.776 17.64 67.672 16.744C68.6 15.848 69.704 15.16 70.984 14.68C72.296 14.2 73.768 13.96 75.4 13.96C77.032 13.96 78.488 14.2 79.768 14.68C81.08 15.16 82.184 15.848 83.08 16.744C84.008 17.64 84.712 18.728 85.192 20.008C85.704 21.288 85.96 22.712 85.96 24.28V39.16C85.96 40.728 85.704 42.152 85.192 43.432C84.712 44.68 84.008 45.752 83.08 46.648C82.184 47.544 81.08 48.248 79.768 48.76C78.456 49.24 77 49.48 75.4 49.48C73.768 49.48 72.296 49.24 70.984 48.76C69.704 48.28 68.6 47.592 67.672 46.696C66.776 45.8 66.072 44.712 65.56 43.432C65.08 42.152 64.84 40.728 64.84 39.16V24.28ZM95.1573 22.6H99.2373V27.16H99.6213C100.037 25.592 100.901 24.36 102.213 23.464C103.525 22.568 105.141 22.12 107.061 22.12C109.845 22.12 112.021 23 113.589 24.76C115.189 26.488 115.989 28.872 115.989 31.912V33.4H111.669V32.44C111.669 30.36 111.141 28.76 110.085 27.64C109.061 26.488 107.589 25.912 105.669 25.912C103.781 25.912 102.277 26.504 101.157 27.688C100.037 28.84 99.4773 30.424 99.4773 32.44V49H95.1573V22.6ZM133.347 49.48C131.715 49.48 130.243 49.24 128.931 48.76C127.651 48.28 126.547 47.592 125.618 46.696C124.723 45.8 124.019 44.712 123.507 43.432C123.027 42.152 122.787 40.728 122.787 39.16V32.44C122.787 30.872 123.027 29.448 123.507 28.168C124.019 26.888 124.723 25.8 125.618 24.904C126.547 24.008 127.651 23.32 128.931 22.84C130.243 22.36 131.715 22.12 133.347 22.12C136.259 22.12 138.643 22.92 140.499 24.52C142.387 26.088 143.523 28.248 143.906 31H139.587C139.363 29.464 138.675 28.248 137.523 27.352C136.403 26.424 135.011 25.96 133.347 25.96C131.427 25.96 129.907 26.536 128.787 27.688C127.667 28.84 127.107 30.424 127.107 32.44V39.16C127.107 41.176 127.651 42.76 128.739 43.912C129.859 45.064 131.395 45.64 133.347 45.64C135.011 45.64 136.403 45.192 137.523 44.296C138.675 43.368 139.363 42.136 139.587 40.6H143.906C143.491 43.384 142.339 45.56 140.451 47.128C138.595 48.696 136.227 49.48 133.347 49.48ZM155.504 39.16C155.504 41.176 156.048 42.76 157.136 43.912C158.256 45.064 159.792 45.64 161.744 45.64C163.664 45.64 165.184 45.064 166.304 43.912C167.424 42.76 167.984 41.176 167.984 39.16V32.44C167.984 30.424 167.424 28.84 166.304 27.688C165.184 26.536 163.664 25.96 161.744 25.96C159.824 25.96 158.304 26.536 157.184 27.688C156.064 28.84 155.504 30.424 155.504 32.44V39.16ZM151.184 32.44C151.184 30.84 151.424 29.416 151.904 28.168C152.416 26.888 153.12 25.8 154.016 24.904C154.944 24.008 156.048 23.32 157.328 22.84C158.64 22.36 160.112 22.12 161.744 22.12C165.008 22.12 167.584 23.032 169.472 24.856C171.36 26.68 172.304 29.192 172.304 32.392V39.16C172.304 40.76 172.064 42.2 171.584 43.48C171.104 44.76 170.4 45.848 169.472 46.744C168.576 47.608 167.472 48.28 166.16 48.76C164.848 49.24 163.376 49.48 161.744 49.48C160.112 49.48 158.64 49.24 157.328 48.76C156.048 48.28 154.944 47.592 154.016 46.696C153.12 45.8 152.416 44.712 151.904 43.432C151.424 42.152 151.184 40.728 151.184 39.16V32.44ZM191.101 13.96V41.32C191.101 42.504 191.421 43.432 192.061 44.104C192.701 44.744 193.581 45.064 194.701 45.064H202.525V49H194.701C192.237 49 190.301 48.328 188.893 46.984C187.485 45.608 186.781 43.72 186.781 41.32V17.896H178.045V13.96H191.101ZM207.93 41.32C207.93 40.072 208.138 38.952 208.554 37.96C209.002 36.936 209.626 36.072 210.426 35.368C211.258 34.664 212.25 34.12 213.402 33.736C214.554 33.352 215.85 33.16 217.29 33.16H225.162V31C225.162 29.368 224.618 28.104 223.53 27.208C222.474 26.28 220.938 25.816 218.922 25.816C217.45 25.816 216.186 26.088 215.13 26.632C214.106 27.176 213.418 27.928 213.066 28.888H208.746C209.194 26.808 210.33 25.16 212.154 23.944C214.01 22.728 216.298 22.12 219.018 22.12C222.282 22.12 224.842 22.888 226.698 24.424C228.554 25.928 229.482 28.04 229.482 30.76V49H225.546V43.96H225.162C224.746 45.656 223.77 47 222.234 47.992C220.698 48.984 218.826 49.48 216.618 49.48C213.962 49.48 211.85 48.744 210.282 47.272C208.714 45.8 207.93 43.816 207.93 41.32ZM217.578 45.928C218.666 45.928 219.674 45.784 220.602 45.496C221.53 45.208 222.33 44.808 223.002 44.296C223.674 43.752 224.202 43.128 224.586 42.424C224.97 41.72 225.162 40.952 225.162 40.12V36.52H217.386C215.786 36.52 214.522 36.936 213.594 37.768C212.698 38.6 212.25 39.752 212.25 41.224C212.25 42.696 212.714 43.848 213.642 44.68C214.57 45.512 215.882 45.928 217.578 45.928Z" fill="#CBCCC6"/>
</svg>
